<svg width="40" height="40" viewBox="0 0 40 40" fill="none" xmlns="http://www.w3.org/2000/svg">
<g clip-path="url(#clip0_376_799)">
<path d="M20.0024 0C14.5655 0 13.8879 0.0262533 11.7602 0.116265C9.62364 0.221278 8.17846 0.552569 6.9033 1.04763C5.56871 1.55147 4.36007 2.34031 3.36161 3.35917C2.33991 4.35529 1.55063 5.56461 1.05007 6.90086C0.55501 8.17602 0.223719 9.6212 0.118706 11.7577C0.0224439 13.8867 0.00244141 14.5631 0.00244141 20C0.00244141 25.4369 0.0286947 26.1145 0.118706 28.2423C0.223719 30.3725 0.55501 31.824 1.05007 33.0991C1.55391 34.4337 2.34275 35.6424 3.36161 36.6408C4.35773 37.6625 5.56705 38.4518 6.9033 38.9524C8.17846 39.4412 9.62989 39.7787 11.7602 39.8837C13.8892 39.98 14.5655 40 20.0024 40C25.4394 40 26.117 39.9737 28.2447 39.8837C30.375 39.7787 31.8264 39.4399 33.1016 38.9524C34.4362 38.4485 35.6448 37.6597 36.6433 36.6408C37.6663 35.6458 38.4558 34.4362 38.9548 33.0991C39.4436 31.824 39.7812 30.3725 39.8862 28.2423C39.9824 26.1133 40.0024 25.4369 40.0024 20C40.0024 14.5631 39.9762 13.8855 39.8862 11.7577C39.7812 9.62745 39.4424 8.16852 38.9548 6.90086C38.451 5.56627 37.6621 4.35762 36.6433 3.35917C35.6482 2.33615 34.4386 1.54667 33.1016 1.04763C31.8264 0.552569 30.375 0.221278 28.2447 0.116265C26.1157 0.0200025 25.4394 0 20.0024 0ZM20.0024 3.60045C25.3419 3.60045 25.9794 3.6267 28.0897 3.71671C30.0362 3.80798 31.0963 4.13302 31.8002 4.40805C32.6703 4.72924 33.4579 5.24047 34.1055 5.90449C34.7683 6.54935 35.2777 7.3351 35.5956 8.20353C35.8707 8.90736 36.1957 9.9675 36.287 11.914C36.377 14.0243 36.4032 14.6631 36.4032 20.0012C36.4032 25.3394 36.377 25.9782 36.2795 28.0885C36.1745 30.035 35.8494 31.0951 35.5756 31.799C35.1968 32.7378 34.7743 33.3942 34.0767 34.1043C33.4269 34.7641 32.6399 35.2729 31.7714 35.5944C31.0763 35.8695 30.0012 36.1945 28.0472 36.2858C25.9257 36.3758 25.3006 36.4021 19.9474 36.4021C14.5943 36.4021 13.9704 36.3758 11.8464 36.2783C9.89993 36.1733 8.82605 35.8482 8.12221 35.5744C7.17209 35.1956 6.52076 34.7731 5.82317 34.0755C5.11933 33.3717 4.67177 32.7016 4.32673 31.7702C4.0467 31.0751 3.72666 30 3.62289 28.046C3.55164 25.9495 3.51788 25.2994 3.51788 19.9712C3.51788 14.6456 3.55164 13.9942 3.62289 11.8715C3.72666 9.91749 4.0467 8.84486 4.32673 8.14727C4.67177 7.1959 5.12058 6.54582 5.82317 5.84198C6.51951 5.14564 7.17209 4.69559 8.12221 4.34304C8.82605 4.06926 9.87368 3.74422 11.8277 3.64671C13.9492 3.57045 14.5743 3.54294 19.9199 3.54294L20.0024 3.60045ZM20.0024 9.73497C18.654 9.73447 17.3186 9.99971 16.0726 10.5155C14.8267 11.0313 13.6946 11.7876 12.7411 12.7412C11.7876 13.6947 11.0313 14.8268 10.5155 16.0727C9.99966 17.3186 9.73442 18.654 9.73491 20.0025C9.73442 21.351 9.99966 22.6864 10.5155 23.9323C11.0313 25.1782 11.7876 26.3103 12.7411 27.2638C13.6946 28.2174 14.8267 28.9736 16.0726 29.4895C17.3186 30.0053 18.654 30.2705 20.0024 30.27C21.3509 30.2705 22.6863 30.0053 23.9322 29.4895C25.1782 28.9736 26.3103 28.2174 27.2638 27.2638C28.2173 26.3103 28.9736 25.1782 29.4894 23.9323C30.0052 22.6864 30.2705 21.351 30.27 20.0025C30.2705 18.654 30.0052 17.3186 29.4894 16.0727C28.9736 14.8268 28.2173 13.6947 27.2638 12.7412C26.3103 11.7876 25.1782 11.0313 23.9322 10.5155C22.6863 9.99971 21.3509 9.73447 20.0024 9.73497ZM20.0024 26.6696C16.317 26.6696 13.3354 23.688 13.3354 20.0025C13.3354 16.317 16.317 13.3354 20.0024 13.3354C23.6879 13.3354 26.6695 16.317 26.6695 20.0025C26.6695 23.688 23.6879 26.6696 20.0024 26.6696ZM33.0841 9.32492C33.0834 9.96208 32.8298 10.5729 32.3791 11.0232C31.9283 11.4735 31.3172 11.7265 30.68 11.7265C30.365 11.7265 30.053 11.6644 29.7619 11.5438C29.4709 11.4233 29.2064 11.2466 28.9836 11.0238C28.7609 10.801 28.5842 10.5366 28.4636 10.2455C28.343 9.95443 28.281 9.64246 28.281 9.32742C28.281 9.01237 28.343 8.70041 28.4636 8.40934C28.5842 8.11827 28.7609 7.8538 28.9836 7.63103C29.2064 7.40826 29.4709 7.23155 29.7619 7.11098C30.053 6.99042 30.365 6.92837 30.68 6.92837C32.0014 6.92837 33.0841 8.0035 33.0841 9.32492Z" fill="black" fill-opacity="0.7"/>
</g>
<defs>
<clipPath id="clip0_376_799">
<rect width="40" height="40" fill="white"/>
</clipPath>
</defs>
</svg>
